<svg version="1.1" viewBox="0 0 45.657 45.657" xmlns="http://www.w3.org/2000/svg" xmlns:xlink="http://www.w3.org/1999/xlink">
 <rect width="45.657" height="45.657" rx="12.091" ry="12.091" fill="#fff" stroke-linejoin="round" stroke-width="22.677"/>
 <path id="a" d="m-75.585 1.335h400v60h-400z" fill="#fff" fill-opacity="0" fill-rule="evenodd"/>
 <path id="b" d="m23.401 5.9548c-3.3704 2.581e-4 -6.3819 0.7225-9.0332 2.1666-2.607 1.4006-4.6743 3.3701-6.2025 5.9088-1.4833 2.4949-2.2254 5.4061-2.2254 8.7323 0 3.4578 0.7875 6.4572 2.3607 8.9958 1.5732 2.5387 3.8205 4.5084 6.742 5.9088 2.9665 1.3569 6.473 2.0349 10.518 2.0349 1.798 0 3.5719-0.17498 5.3249-0.52519 1.7979-0.35011 3.4847-0.87525 5.0578-1.5756 1.0337-0.43771 1.7741-1.0511 2.2236-1.839 0.44948-0.83166 0.65202-1.6626 0.60708-2.4942-0.04494-0.87541-0.31385-1.6418-0.80824-2.2984-0.44946-0.70031-1.1026-1.1811-1.9566-1.4438-0.854-0.30636-1.865-0.24188-3.0336 0.19583-1.1686 0.43762-2.4047 0.78777-3.7084 1.0504-1.2585 0.21885-2.3814 0.32935-3.3701 0.32935-2.9665 0-5.1701-0.65766-6.6085-1.9708-0.93931-0.9147-1.5596-2.2277-1.8657-3.938h19.193c1.0788 0 1.8663-0.19719 2.3607-0.59106 0.4944-0.4377 0.7406-1.0954 0.7406-1.9708 0-2.5387-0.38238-4.8362-1.1465-6.8933-0.71918-2.0572-1.7964-3.8074-3.2348-5.2519-1.4383-1.4882-3.1705-2.6047-5.1931-3.3487-2.0222-0.78772-4.269-1.1819-6.7402-1.1821zm0.54299 7.5502c1.3036 0 2.3808 0.26346 3.2348 0.78867 0.89893 0.52521 1.5746 1.2917 2.0242 2.2984 0.36734 0.82282 0.58094 1.8531 0.64802 3.0852h-12.505c0.13162-0.91169 0.35277-1.7209 0.66405-2.4283 0.53943-1.2255 1.3041-2.1448 2.293-2.7577 1.0337-0.65656 2.2471-0.98628 3.6407-0.98628z" fill="#00f"/>
</svg>
