<?xml version="1.0" encoding="UTF-8" standalone="no"?>
<!-- Created with Inkscape (http://www.inkscape.org/) -->

<svg
   width="1319.1257"
   height="688.09717"
   viewBox="0 0 349.01868 182.05905"
   version="1.1"
   id="svg16059"
   inkscape:version="1.1.2 (08b2f3d93c, 2022-04-05)"
   sodipodi:docname="logo.svg"
   xmlns:inkscape="http://www.inkscape.org/namespaces/inkscape"
   xmlns:sodipodi="http://sodipodi.sourceforge.net/DTD/sodipodi-0.dtd"
   xmlns:xlink="http://www.w3.org/1999/xlink"
   xmlns="http://www.w3.org/2000/svg"
   xmlns:svg="http://www.w3.org/2000/svg">
  <sodipodi:namedview
     id="namedview16061"
     pagecolor="#ffffff"
     bordercolor="#666666"
     borderopacity="1.0"
     inkscape:pageshadow="2"
     inkscape:pageopacity="0.0"
     inkscape:pagecheckerboard="0"
     inkscape:document-units="px"
     showgrid="false"
     inkscape:zoom="0.32204335"
     inkscape:cx="1142.7033"
     inkscape:cy="622.58699"
     inkscape:window-width="1862"
     inkscape:window-height="1016"
     inkscape:window-x="1978"
     inkscape:window-y="27"
     inkscape:window-maximized="1"
     inkscape:current-layer="layer1"
     units="px"
     width="192px"
     inkscape:snap-to-guides="true" />
  <defs
     id="defs16056">
    <linearGradient
       inkscape:collect="always"
       id="linearGradient87762">
      <stop
         style="stop-color:#ffffff;stop-opacity:0.43456856"
         offset="0"
         id="stop87758" />
      <stop
         style="stop-color:#979797;stop-opacity:0;"
         offset="1"
         id="stop87760" />
    </linearGradient>
    <linearGradient
       inkscape:collect="always"
       id="linearGradient87300">
      <stop
         style="stop-color:#ffffff;stop-opacity:1;"
         offset="0"
         id="stop87296" />
      <stop
         style="stop-color:#979797;stop-opacity:1"
         offset="1"
         id="stop87298" />
    </linearGradient>
    <linearGradient
       inkscape:collect="always"
       id="linearGradient79844">
      <stop
         style="stop-color:#008000;stop-opacity:1;"
         offset="0"
         id="stop79840" />
      <stop
         style="stop-color:#0c2b12;stop-opacity:1"
         offset="1"
         id="stop79842" />
    </linearGradient>
    <linearGradient
       inkscape:collect="always"
       id="linearGradient18469">
      <stop
         style="stop-color:#0b743a;stop-opacity:1"
         offset="0"
         id="stop18465" />
      <stop
         style="stop-color:#0c2e14;stop-opacity:1"
         offset="1"
         id="stop18467" />
    </linearGradient>
    <linearGradient
       inkscape:collect="always"
       id="linearGradient17869">
      <stop
         style="stop-color:#ebebeb;stop-opacity:1"
         offset="0"
         id="stop17865" />
      <stop
         style="stop-color:#9b9b9b;stop-opacity:1"
         offset="1"
         id="stop17867" />
    </linearGradient>
    <linearGradient
       inkscape:collect="always"
       id="linearGradient17259">
      <stop
         style="stop-color:#f2f2f2;stop-opacity:1"
         offset="0"
         id="stop17255" />
      <stop
         style="stop-color:#a9a9a9;stop-opacity:1"
         offset="1"
         id="stop17257" />
    </linearGradient>
    <linearGradient
       inkscape:collect="always"
       xlink:href="#linearGradient17259"
       id="linearGradient17261"
       x1="250.34807"
       y1="46.557045"
       x2="250.34807"
       y2="228.53319"
       gradientUnits="userSpaceOnUse" />
    <linearGradient
       inkscape:collect="always"
       xlink:href="#linearGradient17869"
       id="linearGradient17871"
       x1="257.29193"
       y1="59.608902"
       x2="257.29193"
       y2="221.4192"
       gradientUnits="userSpaceOnUse" />
    <linearGradient
       inkscape:collect="always"
       xlink:href="#linearGradient18469"
       id="linearGradient18471"
       x1="253.8168"
       y1="68.002747"
       x2="254.276"
       y2="212.3941"
       gradientUnits="userSpaceOnUse" />
    <linearGradient
       inkscape:collect="always"
       xlink:href="#linearGradient79844"
       id="linearGradient79846"
       x1="255.65485"
       y1="54.631039"
       x2="255.65485"
       y2="214.90164"
       gradientUnits="userSpaceOnUse" />
    <linearGradient
       inkscape:collect="always"
       xlink:href="#linearGradient87300"
       id="linearGradient87302"
       x1="984.45898"
       y1="350.43555"
       x2="984.45898"
       y2="693.58508"
       gradientUnits="userSpaceOnUse" />
    <linearGradient
       inkscape:collect="always"
       xlink:href="#linearGradient87762"
       id="linearGradient87764"
       x1="155.94693"
       y1="130.88023"
       x2="161.97531"
       y2="182.06741"
       gradientUnits="userSpaceOnUse"
       gradientTransform="matrix(1.2448522,1.0051422e-8,-1.0051422e-8,1.2448522,-30.982032,-32.105398)" />
  </defs>
  <g
     inkscape:label="Layer 1"
     inkscape:groupmode="layer"
     id="layer1"
     transform="translate(-85.132904,-47.334549)">
    <path
       id="path88605"
       style="display:inline;opacity:1;fill:url(#linearGradient17261);stroke-width:8.2812;stroke-linejoin:round"
       inkscape:label="bottom"
       d="M 434.15158,138.36407 A 174.50934,91.029526 0 0 1 259.64224,229.3936 174.50934,91.029526 0 0 1 85.132904,138.36407 174.50934,91.029526 0 0 1 259.64224,47.334549 174.50934,91.029526 0 0 1 434.15158,138.36407 Z" />
    <path
       id="path88608"
       style="display:inline;opacity:1;fill:url(#linearGradient79846);stroke-width:7.7689;stroke-linejoin:round"
       inkscape:label="second"
       d="M 426.77437,138.36407 A 167.13213,83.651283 0 0 1 259.64224,222.01536 167.13213,83.651283 0 0 1 92.510117,138.36407 167.13213,83.651283 0 0 1 259.64224,54.712791 167.13213,83.651283 0 0 1 426.77437,138.36407 Z" />
    <path
       id="path88611"
       style="display:inline;opacity:1;fill:url(#linearGradient17871);stroke-width:7.39037;stroke-linejoin:round"
       inkscape:label="third"
       d="M 421.25819,138.36407 A 161.61595,78.281837 0 0 1 259.64224,216.64591 161.61595,78.281837 0 0 1 98.026291,138.36407 161.61595,78.281837 0 0 1 259.64224,60.082237 161.61595,78.281837 0 0 1 421.25819,138.36407 Z" />
    <path
       id="path88614"
       style="display:inline;opacity:1;fill:url(#linearGradient18471);stroke-width:6.97185;stroke-linejoin:round"
       inkscape:label="fourth"
       d="M 414.26022,138.36407 A 154.61798,72.81974 0 0 1 259.64224,211.18382 154.61798,72.81974 0 0 1 105.02426,138.36407 154.61798,72.81974 0 0 1 259.64224,65.544334 154.61798,72.81974 0 0 1 414.26022,138.36407 Z" />
    <path
       id="path88602"
       style="opacity:1;fill:url(#linearGradient87302);fill-opacity:1;stroke-width:28.3335;stroke-linejoin:round"
       d="m 984.45898,350.43555 c -10.71257,0.0407 -24.96431,7.31782 -35.51367,25.58984 l -67.86133,117.37305 h 37.05079 l 42.77343,-75.24805 -0.14062,65.57813 c 0.002,20.39164 37.79037,13.3072 51.85942,-11.39258 l 68.9804,-119.47852 h -37.0488 l -45.43555,81.1836 0.55664,-70.93946 c 0.10173,-7.76505 -6.34458,-12.69973 -15.22071,-12.66601 z m -99.96679,1.75195 c -27.09317,0 -62.31946,22.21147 -78.07227,49.49609 l -53.00586,91.81055 h 36.57032 l 18.84765,-32.64648 h 45.37891 l -18.84766,32.64648 h 36.76367 l 53.00586,-91.81055 c 15.75281,-27.28462 5.98184,-49.49609 -21.11133,-49.49609 z M 710.9043,353.04883 629.875,493.39844 h 71.60938 c 24.12536,0 54.46679,-17.23199 67.64453,-41.54883 5.75236,-10.62667 8.99949,-25.37114 -1.6211,-31.01953 14.00228,-6.51001 24.4938,-18.3801 29.13672,-26.42188 14.09458,-24.41256 4.15662,-41.35937 -19.96875,-41.35937 z m 379.7285,0.0957 -81.0312,140.34961 h 52.2714 c 38.6772,0 88.6465,-31.49658 111.1426,-70.46094 22.1645,-38.38994 8.7572,-69.88867 -29.7285,-69.88867 z m 163.9082,26.67774 c -10.3839,0 -23.5693,8.35826 -29.5644,18.74218 l -6.8262,11.82227 c -5.9952,10.38392 -2.4621,18.74414 7.9219,18.74414 h 51.0449 l -93.3535,36.1582 c -4.5666,1.76876 -9.864,6.48166 -11.877,10.56641 l -5.5097,11.18164 c -2.0131,4.08479 0.043,5.94844 4.6093,4.17969 l 167.3789,-64.83008 c 1.4458,-0.55998 2.9649,-1.41638 4.4297,-2.45313 5.5264,-3.40761 10.5112,-8.20768 13.5938,-13.54687 l 6.8261,-11.82227 c 5.9952,-10.38392 2.4621,-18.74218 -7.9218,-18.74218 z m -390.99803,8.65039 h 19.53125 c 7.27593,0 9.49763,5.93504 5.29687,13.21093 l -12.76953,22.11524 h -45.3789 l 12.76953,-22.11524 c 4.20075,-7.27589 13.46636,-13.21093 20.55078,-13.21093 z m -138.87109,0.0957 h 31.11328 c 4.5953,0 5.96789,3.92345 1.98828,10.81641 -3.31639,5.74412 -9.05509,9.38281 -13.65039,9.38281 h -31.11328 z m 381.31442,0 h 16.8496 c 18.9557,0 24.947,15.98787 14.2793,34.46484 -11.1651,19.3386 -35.4526,35.03907 -54.4082,35.03907 h -16.8496 z M 696.0957,438.0625 h 37.14453 c 4.59534,0 5.36011,4.97892 2.70704,9.57422 -2.65312,4.5953 -9.49646,10.14844 -14.0918,10.14844 h -37.14649 z m 193.73438,94.87695 c -39.53881,0 -90.42971,32.26188 -113.47852,72.1836 -22.8277,39.53877 -9.19115,71.80273 30.34766,71.80273 40.11318,0 90.81097,-32.26396 113.63867,-71.80273 23.04881,-39.92172 9.60537,-72.1836 -30.50781,-72.1836 z m -114.83203,1.01563 c -0.80344,0.0102 -1.78814,0.22383 -2.92969,0.66601 l -167.37891,64.83008 c -1.44582,0.55998 -2.96489,1.4164 -4.42968,2.45313 -5.52639,3.40762 -10.51117,8.20768 -13.59375,13.54687 l -6.82618,11.82227 c -5.9952,10.38391 -2.462,18.74218 7.92188,18.74218 h 100.75195 c 10.38391,0 23.56937,-8.35827 29.56445,-18.74218 l 6.82618,-11.82227 c 5.9952,-10.38391 2.46211,-18.74414 -7.92188,-18.74414 H 665.9375 l 93.35352,-36.1582 c 4.56661,-1.76878 9.86393,-6.48165 11.87695,-10.56641 l 5.50976,-11.18164 c 1.50982,-3.06357 0.73062,-4.87627 -1.67968,-4.8457 z m 477.71675,0.22851 c -26.6144,0 -62.0169,22.01833 -77.3828,48.63282 l -53.2832,92.28906 h 36.4766 l 21.832,-37.81445 h 7.7539 c 19.2429,0 23.9194,18.76306 12.9199,37.81445 h 36.4747 c 10.0596,-17.42385 14.7481,-37.81536 2.9433,-46.71875 16.1074,-4.02093 37.0188,-22.49714 45.1992,-36.66602 l 4.7539,-8.23437 c 15.6423,-27.09317 6.351,-49.30274 -20.6464,-49.30274 z m -108.8144,0.76563 c -26.6145,0 -61.3458,22.01826 -76.8223,48.82422 l -24.7636,42.89062 c -15.2554,26.42298 -6.0598,48.63282 20.5546,48.63282 h 49.4961 l 20.1192,-34.84766 h -49.4942 c -6.9887,0 -9.0153,-6.60506 -4.9804,-13.59375 l 2.709,-4.69141 h 62.3222 l 19.2363,-33.3164 h -62.3242 l 3.2617,-5.64844 c 4.035,-6.98869 13.4117,-13.11524 20.4004,-13.11524 h 49.4942 l 20.2851,-35.13476 z m -175.25196,0.0957 -43.11328,74.67383 c -6.35641,11.00957 -9.54491,20.67902 -6.65039,28.43359 l 13.07421,37.04883 h 28.24219 l 55.85543,-37.04883 c 12.0403,-7.75457 19.8253,-17.42402 26.1817,-28.43359 l 43.1113,-74.67383 h -35.2305 l -42.7812,74.09961 c -1.824,3.15927 -4.0256,5.64763 -7.60938,8.04102 l -33.11914,22.21093 -7.18555,-22.21093 c -0.82008,-2.39339 0.0414,-4.88175 1.86523,-8.04102 l 42.78124,-74.09961 z m -100.1543,34.84766 c 19.91297,0 26.30247,15.79614 15.08203,35.23047 -10.99929,19.05135 -35.62804,34.84765 -55.54101,34.84765 -19.05139,0 -25.72781,-15.7963 -14.72852,-34.84765 11.22044,-19.43433 36.13611,-35.23047 55.1875,-35.23047 z m 363.38086,0.38281 v 0 h 17.041 c 7.1802,0 9.4007,5.93511 5.3105,13.01953 l -6.7988,11.77539 c -4.0349,6.98869 -13.1655,13.02149 -20.3457,13.02149 h -29.8711 c 4.2008,-7.2759 9.9796,-17.61672 14.125,-24.79688 4.0902,-7.08442 13.3569,-13.01953 20.5371,-13.01953 z"
       transform="scale(0.26458334)" />
    <path
       id="path88617"
       style="opacity:1;fill:url(#linearGradient87764);stroke-width:8.54704;stroke-linejoin:round"
       transform="rotate(-15)"
       d="M 254.6738,161.5551 A 86.800339,30.912386 0 0 1 167.87346,192.46749 86.800339,30.912386 0 0 1 81.07312,161.5551 86.800339,30.912386 0 0 1 167.87346,130.64271 86.800339,30.912386 0 0 1 254.6738,161.5551 Z" />
  </g>
</svg>
